HIERARCHY
ROOT Hips
{
  OFFSET 0 0 0
  CHANNELS 6 Xposition Yposition Zposition Zrotation Xrotation Yrotation
  JOINT Spine
  {
    OFFSET 0 10.1816 0.1315
    CHANNELS 6 Xposition Yposition Zposition Zrotation Xrotation Yrotation
    JOINT Spine1
    {
      OFFSET 0 10.0835 -1.0008
      CHANNELS 6 Xposition Yposition Zposition Zrotation Xrotation Yrotation
      JOINT Spine2
      {
        OFFSET 0 9.1 -1.3734
        CHANNELS 6 Xposition Yposition Zposition Zrotation Xrotation Yrotation
        JOINT Neck
        {
          OFFSET 0 16.6717 -2.5162
          CHANNELS 6 Xposition Yposition Zposition Zrotation Xrotation Yrotation
          JOINT Head
          {
            OFFSET 0 9.6179 1.685
            CHANNELS 6 Xposition Yposition Zposition Zrotation Xrotation Yrotation
            End Site
            {
              OFFSET 0 17.8152 2.585
            }
          }
        }
        JOINT LeftShoulder
        {
          OFFSET 4.5704 10.946 -2.628
          CHANNELS 6 Xposition Yposition Zposition Zrotation Xrotation Yrotation
          JOINT LeftArm
          {
            OFFSET 10.5924 -0.5246 -2.2321
            CHANNELS 6 Xposition Yposition Zposition Zrotation Xrotation Yrotation
            JOINT LeftForeArm
            {
              OFFSET 27.8415 -0.0001 0
              CHANNELS 6 Xposition Yposition Zposition Zrotation Xrotation Yrotation
              JOINT LeftHand
              {
                OFFSET 28.3288 0 0
                CHANNELS 6 Xposition Yposition Zposition Zrotation Xrotation Yrotation
                End Site
                {
                  OFFSET 0 0 0
                }
              }
            }
          }
        }
        JOINT RightShoulder
        {
          OFFSET -4.57 10.9462 -2.628
          CHANNELS 6 Xposition Yposition Zposition Zrotation Xrotation Yrotation
          JOINT RightArm
          {
            OFFSET -10.5928 -0.5248 -2.2321
            CHANNELS 6 Xposition Yposition Zposition Zrotation Xrotation Yrotation
            JOINT RightForeArm
            {
              OFFSET -27.8415 0 0
              CHANNELS 6 Xposition Yposition Zposition Zrotation Xrotation Yrotation
              JOINT RightHand
              {
                OFFSET -28.3288 0 0.0001
                CHANNELS 6 Xposition Yposition Zposition Zrotation Xrotation Yrotation
                End Site
                {
                  OFFSET 0 0 0
                }
              }
            }
          }
        }
      }
    }
  }
  JOINT LeftUpLeg
  {
    OFFSET 8.2078 -6.7517 -1.5996
    CHANNELS 6 Xposition Yposition Zposition Zrotation Xrotation Yrotation
    JOINT LeftLeg
    {
      OFFSET 0 -44.3705 0.2846
      CHANNELS 6 Xposition Yposition Zposition Zrotation Xrotation Yrotation
      JOINT LeftFoot
      {
        OFFSET 0 -44.4279 -2.9822
        CHANNELS 6 Xposition Yposition Zposition Zrotation Xrotation Yrotation
        JOINT LeftToeBase
        {
          OFFSET 0 -8.7287 10.7106
          CHANNELS 6 Xposition Yposition Zposition Zrotation Xrotation Yrotation
          End Site
          {
            OFFSET 0 -0.0007 9.2781
          }
        }
      }
    }
  }
  JOINT RightUpLeg
  {
    OFFSET -8.2078 -6.7517 -1.5996
    CHANNELS 6 Xposition Yposition Zposition Zrotation Xrotation Yrotation
    JOINT RightLeg
    {
      OFFSET 0 -44.3705 0.2862
      CHANNELS 6 Xposition Yposition Zposition Zrotation Xrotation Yrotation
      JOINT RightFoot
      {
        OFFSET 0 -44.4277 -2.9838
        CHANNELS 6 Xposition Yposition Zposition Zrotation Xrotation Yrotation
        JOINT RightToeBase
        {
          OFFSET 0 -8.7287 10.7106
          CHANNELS 6 Xposition Yposition Zposition Zrotation Xrotation Yrotation
          End Site
          {
            OFFSET 0 -0.0007 9.2781
          }
        }
      }
    }
  }
}
MOTION
Frames:	8
Frame Time:	0.0333333
-0.381501 79.0193 2.95413 7.60911 16.7475 1.46238 0 10.1816 0.1315 1.99075 10.0717 -14.6235 0 10.0835 -1.0008 0.126241 2.86047 -4.09535 -4.44089e-16 9.1 -1.3734 0.31095 2.83817 -4.32775 8.88178e-16 16.6717 -2.5162 -4.36648 -0.866345 2.29717 2.66454e-15 9.6179 1.685 -11.0844 -8.61125 7.81651 4.5704 10.946 -2.628 9.65698 0.794015 -12.2666 10.5924 -0.5246 -2.2321 1.63225 -44.7231 -67.4733 27.8415 -0.0001 1.77636e-15 -20.183 -18.5349 -94.9678 28.3288 2.84217e-14 0 9.45889 4.25488 -27.7528 -4.57 10.9462 -2.628 11.3967 1.36555 1.0827 -10.5928 -0.5248 -2.2321 23.0682 -20.0743 -26.4947 -27.8415 0 -7.10543e-15 0.302902 -3.40173 10.1731 -28.3288 1.42109e-14 0.0001 -18.27 1.9997 26.7468 8.2078 -6.7517 -1.5996 -7.4521 1.64498 12.1446 0 -44.3705 0.2846 -14.1966 44.9504 20.6081 7.10543e-15 -44.4279 -2.9822 -9.94195 -19.7387 8.40788 -3.55271e-15 -8.7287 10.7106 3.6225e-06 -43.1246 -4.91569e-06 -8.2078 -6.7517 -1.5996 -20.6501 -79.6444 -18.1206 8.88178e-16 -44.3705 0.2862 2.67577 49.6299 -5.96052 8.88178e-16 -44.4277 -2.9838 -7.41704 12.9214 -28.3814 3.55271e-15 -8.7287 10.7106 0.00776298 0.94445 -0.00015596 
1.24368 78.84 5.7099 7.9804 18.1313 -1.47802 -1.77636e-15 10.1816 0.1315 2.60041 10.0714 -14.8698 0 10.0835 -1.0008 0.370247 2.93297 -4.1135 0 9.1 -1.3734 0.553722 2.90591 -4.3122 0 16.6717 -2.5162 -3.08402 -0.601531 3.67409 -8.88178e-16 9.6179 1.685 -7.35032 -4.4155 10.5589 4.5704 10.946 -2.628 8.69709 0.645571 -11.7033 10.5924 -0.5246 -2.2321 -7.19765 -45.1714 -75.3307 27.8415 -0.0001 1.77636e-15 -16.9668 -18.5307 -84.8729 28.3288 1.42109e-14 3.55271e-15 12.0745 7.22161 -32.8624 -4.57 10.9462 -2.628 11.7247 1.63946 2.80262 -10.5928 -0.5248 -2.2321 21.9854 -20.229 -26.5914 -27.8415 1.42109e-14 0 0.441494 -4.09814 12.2921 -28.3288 0 0.0001 -21.2769 1.18096 23.7908 8.2078 -6.7517 -1.5996 -10.6516 -0.778649 15.0377 0 -44.3705 0.2846 -10.3529 46.3897 12.2076 0 -44.4279 -2.9822 -8.84764 -12.1721 11.1959 -3.55271e-15 -8.7287 10.7106 -11.0312 -42.1218 -6.94219 -8.2078 -6.7517 -1.5996 -26.4924 -81.6158 -26.0108 4.44089e-16 -44.3705 0.2862 2.80007 53.5152 -3.37051 0 -44.4277 -2.9838 -7.81579 9.69836 -27.5122 3.55271e-15 -8.7287 10.7106 0.0138172 0.862384 -0.000275347 
2.85345 78.7158 8.47422 8.29464 19.4858 -4.54571 0 10.1816 0.1315 3.31981 10.0566 -15.1607 0 10.0835 -1.0008 0.64618 3.00623 -4.14498 -1.77636e-15 9.1 -1.3734 0.828711 2.97337 -4.30719 -1.77636e-15 16.6717 -2.5162 -2.06017 -0.321693 5.16029 0 9.6179 1.685 -5.98457 -1.18968 13.0976 4.5704 10.946 -2.628 7.87204 0.553289 -11.43 10.5924 -0.5246 -2.2321 -13.2351 -45.1794 -80.2246 27.8415 -0.0001 -1.77636e-15 -14.8683 -18.2347 -78.2251 28.3288 1.42109e-14 0 14.4765 10.1431 -34.1564 -4.57 10.9462 -2.628 12.1239 1.9344 4.56436 -10.5928 -0.5248 -2.2321 20.7213 -20.3603 -26.7444 -27.8415 0 0 0.612327 -4.81355 14.4907 -28.3288 0 0.0001 -24.5459 0.140648 20.6326 8.2078 -6.7517 -1.5996 -13.7908 -3.21603 17.5285 -1.77636e-15 -44.3705 0.2846 -6.49452 48.2804 4.68309 0 -44.4279 -2.9822 -9.97031 -7.9362 14.0342 3.55271e-15 -8.7287 10.7106 -7.68347 -40.0913 -4.26155 -8.2078 -6.7517 -1.5996 -30.5252 -83.3934 -31.1626 -8.88178e-16 -44.3705 0.2862 3.06731 56.8242 -1.85862 -1.77636e-15 -44.4277 -2.9838 -7.82844 6.75219 -26.6238 0 -8.7287 10.7106 0.00490483 0.847156 -6.97416e-05 
4.45327 78.6335 11.2415 8.59032 20.8186 -7.72298 -1.77636e-15 10.1816 0.1315 4.12353 10.0288 -15.4836 -1.77636e-15 10.0835 -1.0008 0.946162 3.08018 -4.18614 0 9.1 -1.3734 1.12793 3.04082 -4.30992 8.88178e-16 16.6717 -2.5162 -1.3962 -0.055501 6.72891 0 9.6179 1.685 -6.67865 0.64334 15.5321 4.5704 10.946 -2.628 7.13122 0.508231 -11.3807 10.5924 -0.5246 -2.2321 -17.1398 -45.3239 -82.8665 27.8415 -0.0001 -1.77636e-15 -13.6355 -17.9478 -74.2566 28.3288 1.42109e-14 0 16.3103 13.1882 -32.5237 -4.57 10.9462 -2.628 12.5536 2.24105 6.35249 -10.5928 -0.5248 -2.2321 19.3425 -20.4802 -26.9272 -27.8415 1.42109e-14 0 0.815777 -5.5384 16.7457 -28.3288 -1.42109e-14 0.0001 -28.0185 -1.05191 17.3013 8.2078 -6.7517 -1.5996 -16.8463 -5.90872 19.5783 8.88178e-16 -44.3705 0.2846 -2.3482 49.9796 -2.7802 2.66454e-15 -44.4279 -2.9822 -11.8987 -3.89812 16.8039 0 -8.7287 10.7106 -3.76278 -34.9241 -1.78257 -8.2078 -6.7517 -1.5996 -32.4443 -85.0435 -33.6446 0 -44.3705 0.2862 3.53162 59.6307 -1.05571 0 -44.4277 -2.9838 -7.61268 4.03182 -25.7035 0 -8.7287 10.7106 0.00812436 0.880832 -0.000186667 
6.04447 78.5726 13.9975 8.92555 22.1349 -10.9843 1.77636e-15 10.1816 0.1315 4.97243 9.99234 -15.8178 0 10.0835 -1.0008 1.25753 3.15458 -4.23156 0 9.1 -1.3734 1.43857 3.10857 -4.31596 -3.55271e-15 16.6717 -2.5162 -1.15155 0.151198 8.33154 1.77636e-15 9.6179 1.685 -8.84437 0.818508 17.6184 4.5704 10.946 -2.628 6.44935 0.502187 -11.5192 10.5924 -0.5246 -2.2321 -19.3369 -45.7993 -83.7326 27.8415 -0.0001 -3.55271e-15 -13.0726 -17.7875 -72.4223 28.3288 -1.42109e-14 7.10543e-15 17.5276 16.0394 -28.7407 -4.57 10.9462 -2.628 12.9663 2.54637 8.14365 -10.5928 -0.5248 -2.2321 17.9349 -20.6007 -27.1039 -27.8415 -1.42109e-14 0 1.0492 -6.25806 19.0168 -28.3288 0 0.0001 -31.5718 -2.28657 13.8489 8.2078 -6.7517 -1.5996 -19.5705 -9.06395 21.2235 -1.11022e-15 -44.3705 0.2846 2.04287 51.9622 -9.3507 0 -44.4279 -2.9822 -14.3783 -0.261883 18.6981 0 -8.7287 10.7106 0.759394 -27.8592 0.295354 -8.2078 -6.7517 -1.5996 -33.1749 -86.5211 -34.7296 -8.88178e-16 -44.3705 0.2862 4.21375 62.0047 -0.442218 0 -44.4277 -2.9838 -7.31462 1.5427 -24.866 0 -8.7287 10.7106 0.00873087 0.892215 -0.000132633 
7.62735 78.5051 16.7226 9.3638 23.4338 -14.2845 0 10.1816 0.1315 5.80641 9.95664 -16.1362 3.55271e-15 10.0835 -1.0008 1.56224 3.22889 -4.27462 1.77636e-15 9.1 -1.3734 1.74251 3.17688 -4.32012 -1.77636e-15 16.6717 -2.5162 -1.15348 0.273564 9.88933 0 9.6179 1.685 -11.241 -0.129064 19.1401 4.5704 10.946 -2.628 5.82321 0.511657 -11.7672 10.5924 -0.5246 -2.2321 -20.5478 -46.4308 -83.618 27.8415 -0.0001 -7.10543e-15 -12.828 -17.7119 -71.6201 28.3288 1.42109e-14 0 18.566 18.2127 -24.3758 -4.57 10.9462 -2.628 13.3226 2.84109 9.91503 -10.5928 -0.5248 -2.2321 16.5851 -20.7316 -27.2405 -27.8415 -1.42109e-14 -7.10543e-15 1.30676 -6.9558 21.2548 -28.3288 1.42109e-14 0.0001 -35.0331 -3.37678 10.3824 8.2078 -6.7517 -1.5996 -21.5471 -12.7676 22.886 1.55431e-15 -44.3705 0.2846 6.77177 54.6974 -15.0447 1.77636e-15 -44.4279 -2.9822 -16.615 2.93979 19.2848 -3.55271e-15 -8.7287 10.7106 -1.81318e-05 -17.0527 -7.05212e-06 -8.2078 -6.7517 -1.5996 -36.2088 -87.796 -38.1483 -3.55271e-15 -44.3705 0.2862 5.02642 64.0729 0.435457 -8.88178e-16 -44.4277 -2.9838 -7.07406 -0.725714 -24.2227 0 -8.7287 10.7106 0.00802905 0.924251 -0.000109519 
9.19036 78.3779 19.3609 9.91309 24.7171 -17.5786 0 10.1816 0.1315 6.60841 9.93291 -16.4181 0 10.0835 -1.0008 1.84687 3.30271 -4.31184 1.77636e-15 9.1 -1.3734 2.02628 3.24567 -4.31992 -1.77636e-15 16.6717 -2.5162 -1.19668 0.298972 11.3203 0 9.6179 1.685 -12.9643 -1.64726 20.087 4.5704 10.946 -2.628 5.30398 0.51483 -12.0835 10.5924 -0.5246 -2.2321 -21.1296 -46.9716 -82.9824 27.8415 -0.0001 3.55271e-15 -12.6729 -17.662 -71.1092 28.3288 -1.42109e-14 -7.10543e-15 20.0241 19.2963 -20.8107 -4.57 10.9462 -2.628 13.589 3.11731 11.6573 -10.5928 -0.5248 -2.2321 15.3649 -20.8918 -27.3137 -27.8415 0 7.10543e-15 1.58224 -7.62076 23.4261 -28.3288 0 0.0001 -38.1737 -4.14698 7.0502 8.2078 -6.7517 -1.5996 -21.3681 -17.7526 25.3552 8.88178e-16 -44.3705 0.2846 12.4573 59.9729 -20.6703 -1.77636e-15 -44.4279 -2.9822 -16.8791 5.16418 18.3549 0 -8.7287 10.7106 5.65473e-06 -11.5685 -2.65379e-06 -8.2078 -6.7517 -1.5996 -52.3528 -88.8781 -54.7455 -1.77636e-15 -44.3705 0.2862 5.84619 65.8957 1.62076 0 -44.4277 -2.9838 -6.89791 -2.74908 -23.709 0 -8.7287 10.7106 0.00888997 0.931012 -0.000181747 
10.7343 78.1651 21.8853 10.574 25.9924 -20.8424 0 10.1816 0.1315 7.38033 9.92665 -16.6511 0 10.0835 -1.0008 2.10489 3.37549 -4.34273 0 9.1 -1.3734 2.28337 3.31461 -4.31536 3.55271e-15 16.6717 -2.5162 -1.11246 0.236392 12.5616 -3.55271e-15 9.6179 1.685 -13.7078 -3.23974 20.7091 4.5704 10.946 -2.628 4.94141 0.498711 -12.4435 10.5924 -0.5246 -2.2321 -21.4446 -47.1122 -82.3584 27.8415 -0.0001 -1.42109e-14 -12.4318 -17.5816 -70.3132 28.3288 0 -7.10543e-15 22.2647 19.4098 -18.9969 -4.57 10.9462 -2.628 13.7042 3.36581 13.3686 -10.5928 -0.5248 -2.2321 14.3908 -21.1304 -27.3115 -27.8415 1.42109e-14 -7.10543e-15 1.87202 -8.25121 25.5247 -28.3288 -1.42109e-14 0.0001 -40.7405 -4.40526 4.0272 8.2078 -6.7517 -1.5996 -17.9268 -23.935 29.6471 -8.88178e-16 -44.3705 0.2846 21.4674 68.1194 -29.3149 -2.22045e-15 -44.4279 -2.9822 -13.8137 5.85815 16.5743 -1.77636e-15 -8.7287 10.7106 9.23564e-07 -8.73854 -1.90915e-06 -8.2078 -6.7517 -1.5996 -127.916 -89.2675 -130.739 5.32907e-15 -44.3705 0.2862 6.50656 67.5315 2.67308 0 -44.4277 -2.9838 -6.64651 -4.58698 -22.8854 0 -8.7287 10.7106 0.00882634 0.929511 -0.000190717 
